<svg xmlns="http://www.w3.org/2000/svg" x="0px" y="0px"
width="26" height="26"
viewBox="0 0 172 172"
style=" fill:#000000;"><g fill="none" fill-rule="nonzero" stroke="none" stroke-width="1" stroke-linecap="butt" stroke-linejoin="miter" stroke-miterlimit="10" stroke-dasharray="" stroke-dashoffset="0" font-family="none" font-weight="none" font-size="none" text-anchor="none" style="mix-blend-mode: normal"><path d="M0,172v-172h172v172z" fill="none"></path><g fill="#ffffff"><path d="M46.30769,0c-14.57452,0 -26.46154,11.88702 -26.46154,26.46154v119.07692c0,14.57452 11.88702,26.46154 26.46154,26.46154h79.38462c14.57452,0 26.46154,-11.88702 26.46154,-26.46154v-92.61538c0,-7.02885 -6.43449,-13.69591 -17.98558,-25.01442c-1.60216,-1.57632 -3.33353,-3.33353 -4.96154,-4.96154c-1.62801,-1.62801 -3.38522,-3.15264 -4.96154,-4.75481c-11.31851,-11.55108 -17.98558,-18.19231 -25.01442,-18.19231zM46.30769,13.23077h48.16827c4.78065,1.21454 4.75481,6.95132 4.75481,12.81731v20.25962c0,3.64363 2.97176,6.61538 6.61538,6.61538h19.84615c6.58954,0 13.23077,0.02584 13.23077,6.61538v86c0,7.3131 -5.91767,13.23077 -13.23077,13.23077h-79.38462c-7.3131,0 -13.23077,-5.91767 -13.23077,-13.23077v-119.07692c0,-7.3131 5.91767,-13.23077 13.23077,-13.23077zM66.15385,59.53846c-7.3131,0 -13.23077,5.91767 -13.23077,13.23077c0,7.3131 5.91767,13.23077 13.23077,13.23077c7.3131,0 13.23077,-5.91767 13.23077,-13.23077c0,-7.3131 -5.91767,-13.23077 -13.23077,-13.23077zM105.63942,80.41827c-7.85577,0 -10.62079,32.45673 -21.5,32.45673c-8.0625,0 -11.1893,-13.23077 -17.98558,-13.23077c-6.79628,0 -19.01923,27.70192 -19.01923,27.70192c-2.50661,2.79087 1.24038,4.96154 4.13462,4.96154h69.875c2.35156,0 5.375,-2.9976 3.51442,-7.02885c0,0 -11.16346,-44.86058 -19.01923,-44.86058z"></path></g></g></svg>